<?xml version="1.0" encoding="UTF-8" standalone="no"?>
<!-- Uploaded to: SVG Repo, www.svgrepo.com, Generator: SVG Repo Mixer Tools -->

<svg
   width="800"
   height="800"
   viewBox="0 0 24 24"
   version="1.1"
   id="svg1"
   sodipodi:docname="carrello.svg"
   inkscape:export-filename="carrello.svg"
   inkscape:export-xdpi="96"
   inkscape:export-ydpi="96"
   xmlns:inkscape="http://www.inkscape.org/namespaces/inkscape"
   xmlns:sodipodi="http://sodipodi.sourceforge.net/DTD/sodipodi-0.dtd"
   xmlns="http://www.w3.org/2000/svg"
   xmlns:svg="http://www.w3.org/2000/svg">
  <defs
     id="defs1" />
  <sodipodi:namedview
     id="namedview1"
     pagecolor="#ffffff"
     bordercolor="#000000"
     borderopacity="0.25"
     inkscape:showpageshadow="2"
     inkscape:pageopacity="0.0"
     inkscape:pagecheckerboard="0"
     inkscape:deskcolor="#d1d1d1">
    <inkscape:page
       x="0"
       y="0"
       width="24"
       height="24"
       id="page2"
       margin="0"
       bleed="0" />
  </sodipodi:namedview>
  <rect
     x="0"
     fill="none"
     width="24"
     height="24"
     id="rect1"
     y="0" />
  <g
     id="g1"
     style="fill:#003459;fill-opacity:1">
    <path
       d="m 9,20 c 0,1.1 -0.9,2 -2,2 -1.1,0 -1.99,-0.9 -1.99,-2 0,-1.1 0.89,-2 1.99,-2 1.1,0 2,0.9 2,2 z m 8,-2 c -1.1,0 -1.99,0.9 -1.99,2 0,1.1 0.89,2 1.99,2 1.1,0 2,-0.9 2,-2 0,-1.1 -0.9,-2 -2,-2 z m 0.396,-5 c 0.937,0 1.75,-0.65 1.952,-1.566 L 21,5 H 7 V 4 C 7,2.895 6.105,2 5,2 H 3 v 2 h 2 v 11 c 0,1.105 0.895,2 2,2 h 12 c 0,-1.105 -0.895,-2 -2,-2 H 7 v -2 z"
       fill="currentColor"
       id="path1"
       style="fill:#003459;fill-opacity:1" />
  </g>
</svg>
